<svg xmlns="http://www.w3.org/2000/svg" viewBox="0 0 520 360"><defs><linearGradient id="mug" x1="0" x2="1"><stop stop-color="#efe1c4"/><stop offset=".6" stop-color="#c79d72"/><stop offset="1" stop-color="#8d684e"/></linearGradient><linearGradient id="basket" x1="0" x2="1"><stop stop-color="#6f4b2e"/><stop offset=".5" stop-color="#b58451"/><stop offset="1" stop-color="#5d3d27"/></linearGradient><radialGradient id="lamp"><stop stop-color="#fff2b8"/><stop offset=".45" stop-color="#e8ba63"/><stop offset="1" stop-color="#75512f"/></radialGradient></defs><g transform="translate(38 166)"><ellipse cx="75" cy="126" rx="73" ry="14" fill="#47301e" opacity=".28"/><path d="M27 36h88v87H20z" fill="url(#basket)" stroke="#533720" stroke-width="4"/><path d="M31 55h75M27 75h83M24 95h87" stroke="#d0a26a" stroke-opacity=".5" stroke-width="4"/><path d="M43 36c0-43 58-43 58 0" fill="none" stroke="#815936" stroke-width="8"/><path d="M42 50c7-25 20-43 39-54 12 18 18 36 16 54" fill="#687950" stroke="#3d4f35" stroke-width="4"/></g><g transform="translate(190 135)"><path d="M36 65h92v80H28z" fill="url(#mug)" stroke="#76543e" stroke-width="4"/><path d="M125 80c37 0 39 47 7 49h-11" fill="none" stroke="#9d7657" stroke-width="9"/><ellipse cx="80" cy="65" rx="44" ry="11" fill="#5c3a25"/><path d="M58 34c-14-17 5-27-5-43M80 34c-14-17 5-27-5-43M101 34c-14-17 5-27-5-43" stroke="#f0e5d4" stroke-opacity=".65" stroke-width="4" fill="none"/><path d="M23 151h118" stroke="#866347" stroke-width="7"/></g><g transform="translate(350 86)"><ellipse cx="75" cy="206" rx="69" ry="14" fill="#3a2a20" opacity=".3"/><path d="M61 23h26l13 131H48z" fill="#7c5c3c" stroke="#4a3524" stroke-width="4"/><path d="M25 148h100l-12 58H37z" fill="#5c442f" stroke="#39281c" stroke-width="4"/><path d="M17 50h116L110 5H39z" fill="url(#lamp)" stroke="#806038" stroke-width="4"/><ellipse cx="75" cy="49" rx="54" ry="13" fill="#fff4c8" opacity=".18"/><circle cx="75" cy="49" r="78" fill="#f0c56b" opacity=".08"/></g></svg>